<mxfile host="65bd71144e">
    <diagram id="R0K9P3SgZjPwyHruo6r8" name="Slide 1">
        <mxGraphModel grid="1" page="1" gridSize="10" guides="1" tooltips="1" connect="1" arrows="1" fold="1" pageScale="1" pageWidth="850" pageHeight="1100" math="0" shadow="0">
            <root>
                <mxCell id="0"/>
                <mxCell id="1" parent="0"/>
                <mxCell id="2" value="" style="rounded=0;whiteSpace=wrap;html=1;" vertex="1" parent="1">
                    <mxGeometry x="130" y="80" width="620" height="420" as="geometry"/>
                </mxCell>
                <mxCell id="6" value="Genrate with HF mcp with this prompt: Scale whre left side there is&amp;nbsp; a gold bar&amp;nbsp; and in the right there is a clover, there are in requilibrium&amp;nbsp;" style="rounded=1;whiteSpace=wrap;html=1;" vertex="1" parent="1">
                    <mxGeometry x="230" y="230" width="440" height="230" as="geometry"/>
                </mxCell>
                <mxCell id="7" value="&lt;div style=&quot;color: rgb(35, 110, 191); background-color: rgb(255, 255, 255); font-family: Consolas, &amp;quot;Courier New&amp;quot;, monospace; font-size: 14px; line-height: 19px; white-space: pre;&quot;&gt;&lt;span style=&quot;color: rgb(62, 62, 62);&quot;&gt;What’s more valuable: a clover or a gold bar? (title H1)&lt;/span&gt;&lt;/div&gt;" style="text;html=1;align=center;verticalAlign=middle;whiteSpace=wrap;rounded=0;" vertex="1" parent="1">
                    <mxGeometry x="301" y="130" width="247.5" height="30" as="geometry"/>
                </mxCell>
            </root>
        </mxGraphModel>
    </diagram>
    <diagram id="e_VRPWocN1EfoxAttSkf" name="Slide 2">
        <mxGraphModel grid="1" page="1" gridSize="10" guides="1" tooltips="1" connect="1" arrows="1" fold="1" pageScale="1" pageWidth="850" pageHeight="1100" math="0" shadow="0">
            <root>
                <mxCell id="0"/>
                <mxCell id="1" parent="0"/>
                <mxCell id="V_U5IQhnY5XUFMEr3ixB-1" value="We could lost forever our natural heritage" style="text;html=1;align=center;verticalAlign=middle;whiteSpace=wrap;rounded=0;" vertex="1" parent="1">
                    <mxGeometry x="280" y="90" width="280" height="30" as="geometry"/>
                </mxCell>
                <mxCell id="V_U5IQhnY5XUFMEr3ixB-2" value="Humbold penguin picture sufferring, get picture from splash or HF generated" style="whiteSpace=wrap;html=1;aspect=fixed;" vertex="1" parent="1">
                    <mxGeometry x="130" y="200" width="180" height="180" as="geometry"/>
                </mxCell>
                <mxCell id="V_U5IQhnY5XUFMEr3ixB-3" value="&lt;div style=&quot;color: rgb(35, 110, 191); background-color: rgb(255, 255, 255); font-family: Consolas, &amp;quot;Courier New&amp;quot;, monospace; font-size: 14px; line-height: 19px; white-space: pre;&quot;&gt;&lt;span style=&quot;color: #003494;&quot;&gt;&amp;gt;&lt;/span&gt;&lt;span style=&quot;color: #3e3e3e;&quot;&gt;1,200 species in Peru are endangered&lt;/span&gt;&lt;/div&gt;" style="text;html=1;align=center;verticalAlign=middle;rounded=0;fillColor=#d5e8d4;strokeColor=#82b366;glass=1;shadow=1;autosize=0;whiteSpace=wrap;" vertex="1" parent="1">
                    <mxGeometry x="140" y="130" width="160" height="50" as="geometry"/>
                </mxCell>
                <mxCell id="V_U5IQhnY5XUFMEr3ixB-4" value="Picture of skinny animal because lack of food. Look into splash or HF generation" style="whiteSpace=wrap;html=1;aspect=fixed;" vertex="1" parent="1">
                    <mxGeometry x="370" y="200" width="180" height="180" as="geometry"/>
                </mxCell>
                <mxCell id="V_U5IQhnY5XUFMEr3ixB-5" value="&lt;div style=&quot;background-color: rgb(255, 255, 255); font-family: Consolas, &amp;quot;Courier New&amp;quot;, monospace; font-size: 14px; line-height: 19px; white-space: pre; color: rgb(35, 110, 191);&quot;&gt;&lt;font color=&quot;#003494&quot;&gt;LAck of Public attention and funding&lt;/font&gt;&lt;/div&gt;" style="text;html=1;align=center;verticalAlign=middle;rounded=0;fillColor=#d5e8d4;strokeColor=#82b366;glass=1;shadow=1;autosize=0;whiteSpace=wrap;" vertex="1" parent="1">
                    <mxGeometry x="380" y="130" width="160" height="50" as="geometry"/>
                </mxCell>
                <mxCell id="V_U5IQhnY5XUFMEr3ixB-6" value="&lt;div style=&quot;background-color: rgb(255, 255, 255); font-family: Consolas, &amp;quot;Courier New&amp;quot;, monospace; font-size: 14px; line-height: 19px; white-space: pre; color: rgb(35, 110, 191);&quot;&gt;&lt;font color=&quot;#003494&quot;&gt;Missing incentives for &lt;/font&gt;&lt;span style=&quot;color: rgb(62, 62, 62);&quot;&gt;long-term care&lt;/span&gt;&lt;span style=&quot;color: rgb(63, 63, 63); background-color: light-dark(rgb(255, 255, 255), rgb(18, 18, 18));&quot;&gt; &lt;/span&gt;&lt;/div&gt;" style="text;html=1;align=center;verticalAlign=middle;rounded=0;fillColor=#d5e8d4;strokeColor=#82b366;glass=1;shadow=1;autosize=0;whiteSpace=wrap;" vertex="1" parent="1">
                    <mxGeometry x="610" y="130" width="160" height="50" as="geometry"/>
                </mxCell>
                <mxCell id="V_U5IQhnY5XUFMEr3ixB-7" value="Video of money giving to animal and healing them" style="whiteSpace=wrap;html=1;aspect=fixed;" vertex="1" parent="1">
                    <mxGeometry x="600" y="200" width="180" height="180" as="geometry"/>
                </mxCell>
            </root>
        </mxGraphModel>
    </diagram>
    <diagram id="vGINzTFcWCWOcjqvGGQY" name="slide-3">
        <mxGraphModel dx="1694" dy="839" grid="1" gridSize="10" guides="1" tooltips="1" connect="1" arrows="1" fold="1" page="1" pageScale="1" pageWidth="850" pageHeight="1100" math="0" shadow="0">
            <root>
                <mxCell id="0"/>
                <mxCell id="1" parent="0"/>
                <mxCell id="1AQJrJt1bPxJf5KGvT3C-1" value="" style="rounded=0;whiteSpace=wrap;html=1;" vertex="1" parent="1">
                    <mxGeometry x="130" y="160" width="790" height="540" as="geometry"/>
                </mxCell>
                <mxCell id="1AQJrJt1bPxJf5KGvT3C-2" value="we could make the difference (h1 title)" style="text;html=1;align=center;verticalAlign=middle;whiteSpace=wrap;rounded=0;" vertex="1" parent="1">
                    <mxGeometry x="159" y="160" width="331" height="60" as="geometry"/>
                </mxCell>
                <mxCell id="1AQJrJt1bPxJf5KGvT3C-3" value="penguin photorealsitic iamge as background. Text 1 Penguin = 1 GreenCoin" style="ellipse;whiteSpace=wrap;html=1;aspect=fixed;" vertex="1" parent="1">
                    <mxGeometry x="200" y="220" width="130" height="130" as="geometry"/>
                </mxCell>
                <mxCell id="1AQJrJt1bPxJf5KGvT3C-10" value="DNA as image background. text&amp;nbsp;&lt;span style=&quot;color: rgb(62, 62, 62); background-color: rgb(255, 255, 255); font-family: Consolas, &amp;quot;Courier New&amp;quot;, monospace; font-size: 14px; white-space: pre;&quot;&gt;Identity anchored to DNA: sampling at the zoo with chain-of-custody&lt;/span&gt;" style="ellipse;whiteSpace=wrap;html=1;" vertex="1" parent="1">
                    <mxGeometry x="197.5" y="370" width="132.5" height="132.5" as="geometry"/>
                </mxCell>
                <mxCell id="1AQJrJt1bPxJf5KGvT3C-13" value="ADN LAB AS BACKGROUNG. TEXT&amp;nbsp;&lt;span style=&quot;color: rgb(62, 62, 62); background-color: rgb(255, 255, 255); font-family: Consolas, &amp;quot;Courier New&amp;quot;, monospace; font-size: 14px; white-space: pre;&quot;&gt;electrophoresis + Sanger sequencing at a certified US lab; signed PDF reports.&lt;/span&gt;&lt;span style=&quot;background-color: transparent;&quot;&gt;&amp;nbsp;&lt;/span&gt;" style="ellipse;html=1;whiteSpace=wrap;" vertex="1" parent="1">
                    <mxGeometry x="197.5" y="530" width="132.5" height="132.5" as="geometry"/>
                </mxCell>
                <mxCell id="1AQJrJt1bPxJf5KGvT3C-15" value="" style="points=[];aspect=fixed;html=1;align=center;shadow=0;dashed=0;fillColor=#FF6A00;strokeColor=none;shape=mxgraph.alibaba_cloud.baas_blockchain_as_a_service;" vertex="1" parent="1">
                    <mxGeometry x="447.53" y="345" width="154.94" height="170" as="geometry"/>
                </mxCell>
                <mxCell id="1AQJrJt1bPxJf5KGvT3C-17" value="BLOCKCHAIN" style="text;html=1;align=center;verticalAlign=middle;whiteSpace=wrap;rounded=0;" vertex="1" parent="1">
                    <mxGeometry x="490" y="280" width="60" height="30" as="geometry"/>
                </mxCell>
                <mxCell id="1AQJrJt1bPxJf5KGvT3C-18" value="background PoA concept generated with 3D in HF. Text&amp;nbsp;&lt;span style=&quot;color: rgb(62, 62, 62); background-color: rgb(255, 255, 255); font-family: Consolas, &amp;quot;Courier New&amp;quot;, monospace; font-size: 14px; white-space: pre;&quot;&gt;&amp;nbsp;hashes of reports/media on-chain; BioOracle verifies and writes.&lt;/span&gt;" style="ellipse;whiteSpace=wrap;html=1;aspect=fixed;" vertex="1" parent="1">
                    <mxGeometry x="710" y="260" width="160" height="160" as="geometry"/>
                </mxCell>
                <mxCell id="1AQJrJt1bPxJf5KGvT3C-19" value="background Genealogy tree&lt;span style=&quot;color: rgb(62, 62, 62); background-color: light-dark(rgb(255, 255, 255), rgb(18, 18, 18)); font-family: Consolas, &amp;quot;Courier New&amp;quot;, monospace; font-size: 14px; white-space: pre;&quot;&gt;BioOracle maintains the on-chain genealogy tree (parents ↔ offspring), anchoring identity and lineage across generations.&lt;/span&gt;&lt;div&gt;&lt;span style=&quot;color: rgb(62, 62, 62); background-color: light-dark(rgb(255, 255, 255), rgb(18, 18, 18)); font-family: Consolas, &amp;quot;Courier New&amp;quot;, monospace; font-size: 14px; white-space: pre;&quot;&gt;&lt;br&gt;&lt;/span&gt;&lt;/div&gt;" style="ellipse;whiteSpace=wrap;html=1;aspect=fixed;" vertex="1" parent="1">
                    <mxGeometry x="700" y="460" width="160" height="160" as="geometry"/>
                </mxCell>
            </root>
        </mxGraphModel>
    </diagram>
</mxfile>